<?xml version="1.0" encoding="UTF-8"?>
<svg xmlns="http://www.w3.org/2000/svg" width="1200" height="760" viewBox="0 0 1200 760">
  <defs>
    <linearGradient id="bg" x1="0" y1="0" x2="1" y2="1">
      <stop offset="0%" stop-color="#f6fbff"/>
      <stop offset="100%" stop-color="#e9f5ea"/>
    </linearGradient>
  </defs>
  <rect x="0" y="0" width="1200" height="760" fill="url(#bg)"/>
  <text x="95" y="52" font-size="31" font-family="Avenir Next, Segoe UI, sans-serif" fill="#0f172a">Convergence Curve</text>
  <text x="95" y="77" font-size="15" font-family="Avenir Next, Segoe UI, sans-serif" fill="#334155">Final mean best-so-far: 0.95633334 at generation 149</text>
  <line x1="95.0" y1="95" x2="95.0" y2="665" stroke="#94a3b8" stroke-opacity="0.27" stroke-width="1"/>
  <text x="95.0" y="689" text-anchor="middle" font-size="12" font-family="Avenir Next, Segoe UI, sans-serif" fill="#334155">0</text>
  <line x1="310.43624161073825" y1="95" x2="310.43624161073825" y2="665" stroke="#94a3b8" stroke-opacity="0.27" stroke-width="1"/>
  <text x="310.43624161073825" y="689" text-anchor="middle" font-size="12" font-family="Avenir Next, Segoe UI, sans-serif" fill="#334155">30</text>
  <line x1="525.8724832214765" y1="95" x2="525.8724832214765" y2="665" stroke="#94a3b8" stroke-opacity="0.27" stroke-width="1"/>
  <text x="525.8724832214765" y="689" text-anchor="middle" font-size="12" font-family="Avenir Next, Segoe UI, sans-serif" fill="#334155">60</text>
  <line x1="734.1275167785235" y1="95" x2="734.1275167785235" y2="665" stroke="#94a3b8" stroke-opacity="0.27" stroke-width="1"/>
  <text x="734.1275167785235" y="689" text-anchor="middle" font-size="12" font-family="Avenir Next, Segoe UI, sans-serif" fill="#334155">89</text>
  <line x1="949.5637583892617" y1="95" x2="949.5637583892617" y2="665" stroke="#94a3b8" stroke-opacity="0.27" stroke-width="1"/>
  <text x="949.5637583892617" y="689" text-anchor="middle" font-size="12" font-family="Avenir Next, Segoe UI, sans-serif" fill="#334155">119</text>
  <line x1="1165.0" y1="95" x2="1165.0" y2="665" stroke="#94a3b8" stroke-opacity="0.27" stroke-width="1"/>
  <text x="1165.0" y="689" text-anchor="middle" font-size="12" font-family="Avenir Next, Segoe UI, sans-serif" fill="#334155">149</text>
  <line x1="95" y1="665.0" x2="1165" y2="665.0" stroke="#94a3b8" stroke-opacity="0.27" stroke-width="1"/>
  <text x="85" y="669.000" text-anchor="end" font-size="12" font-family="Avenir Next, Segoe UI, sans-serif" fill="#334155">0.956333</text>
  <line x1="95" y1="665.0" x2="1165" y2="665.0" stroke="#94a3b8" stroke-opacity="0.27" stroke-width="1"/>
  <text x="85" y="669.000" text-anchor="end" font-size="12" font-family="Avenir Next, Segoe UI, sans-serif" fill="#334155">0.956333</text>
  <line x1="95" y1="665.0" x2="1165" y2="665.0" stroke="#94a3b8" stroke-opacity="0.27" stroke-width="1"/>
  <text x="85" y="669.000" text-anchor="end" font-size="12" font-family="Avenir Next, Segoe UI, sans-serif" fill="#334155">0.956333</text>
  <line x1="95" y1="665.0" x2="1165" y2="665.0" stroke="#94a3b8" stroke-opacity="0.27" stroke-width="1"/>
  <text x="85" y="669.000" text-anchor="end" font-size="12" font-family="Avenir Next, Segoe UI, sans-serif" fill="#334155">0.956333</text>
  <line x1="95" y1="665.0" x2="1165" y2="665.0" stroke="#94a3b8" stroke-opacity="0.27" stroke-width="1"/>
  <text x="85" y="669.000" text-anchor="end" font-size="12" font-family="Avenir Next, Segoe UI, sans-serif" fill="#334155">0.956333</text>
  <line x1="95" y1="665.0" x2="1165" y2="665.0" stroke="#94a3b8" stroke-opacity="0.27" stroke-width="1"/>
  <text x="85" y="669.000" text-anchor="end" font-size="12" font-family="Avenir Next, Segoe UI, sans-serif" fill="#334155">0.956333</text>
  <line x1="95" y1="665" x2="1165" y2="665" stroke="#0f172a" stroke-width="1.8"/>
  <line x1="95" y1="95" x2="95" y2="665" stroke="#0f172a" stroke-width="1.8"/>
  <polyline points="95.0,665.0 102.18120805369128,665.0 109.36241610738256,665.0 116.54362416107382,665.0 123.7248322147651,665.0 130.90604026845637,665.0 138.08724832214764,665.0 145.26845637583892,665.0 152.4496644295302,665.0 159.63087248322148,665.0 166.81208053691273,665.0 173.99328859060404,665.0 181.1744966442953,665.0 188.3557046979866,665.0 195.53691275167785,665.0 202.71812080536913,665.0 209.8993288590604,665.0 217.08053691275168,665.0 224.26174496644296,665.0 231.44295302013424,665.0 238.6241610738255,665.0 245.80536912751677,665.0 252.98657718120808,665.0 260.1677852348993,665.0 267.3489932885906,665.0 274.5302013422819,665.0 281.7114093959732,665.0 288.8926174496644,665.0 296.0738255033557,665.0 303.255033557047,665.0 310.43624161073825,665.0 317.6174496644295,665.0 324.7986577181208,665.0 331.9798657718121,665.0 339.16107382550337,665.0 346.3422818791946,665.0 353.5234899328859,665.0 360.7046979865772,665.0 367.8859060402685,665.0 375.06711409395973,665.0 382.248322147651,665.0 389.4295302013423,665.0 396.61073825503354,665.0 403.79194630872485,665.0 410.97315436241615,665.0 418.1543624161074,665.0 425.33557046979865,665.0 432.5167785234899,665.0 439.6979865771812,665.0 446.8791946308725,665.0 454.06040268456377,665.0 461.241610738255,665.0 468.4228187919463,665.0 475.6040268456376,665.0 482.7852348993288,665.0 489.96644295302013,665.0 497.14765100671144,665.0 504.3288590604027,665.0 511.51006711409394,665.0 518.6912751677852,665.0 525.8724832214765,665.0 533.0536912751678,665.0 540.234899328859,665.0 547.4161073825503,665.0 554.5973154362416,665.0 561.7785234899329,665.0 568.9597315436242,665.0 576.1409395973155,665.0 583.3221476510067,665.0 590.5033557046979,665.0 597.6845637583892,665.0 604.8657718120805,665.0 612.0469798657718,665.0 619.2281879194632,665.0 626.4093959731543,665.0 633.5906040268457,665.0 640.771812080537,665.0 647.9530201342283,665.0 655.1342281879195,665.0 662.3154362416108,665.0 669.496644295302,665.0 676.6778523489933,665.0 683.8590604026846,665.0 691.0402684563758,665.0 698.2214765100671,665.0 705.4026845637584,665.0 712.5838926174497,665.0 719.765100671141,665.0 726.9463087248323,665.0 734.1275167785235,665.0 741.3087248322148,665.0 748.489932885906,665.0 755.6711409395973,665.0 762.8523489932886,665.0 770.0335570469798,665.0 777.2147651006711,665.0 784.3959731543624,665.0 791.5771812080536,665.0 798.758389261745,665.0 805.9395973154362,665.0 813.1208053691275,665.0 820.3020134228188,665.0 827.48322147651,665.0 834.6644295302013,665.0 841.8456375838927,665.0 849.0268456375838,665.0 856.2080536912752,665.0 863.3892617449663,665.0 870.5704697986577,665.0 877.7516778523491,665.0 884.9328859060403,665.0 892.1140939597316,665.0 899.2953020134229,665.0 906.4765100671141,665.0 913.6577181208054,665.0 920.8389261744967,665.0 928.0201342281879,665.0 935.2013422818792,665.0 942.3825503355704,665.0 949.5637583892617,665.0 956.744966442953,665.0 963.9261744966443,665.0 971.1073825503356,665.0 978.2885906040269,665.0 985.4697986577181,665.0 992.6510067114094,665.0 999.8322147651006,665.0 1007.0134228187919,665.0 1014.1946308724832,665.0 1021.3758389261744,665.0 1028.5570469798658,665.0 1035.738255033557,665.0 1042.9194630872485,665.0 1050.1006711409395,665.0 1057.281879194631,665.0 1064.4630872483222,665.0 1071.6442953020135,665.0 1078.8255033557048,665.0 1086.0067114093958,665.0 1093.1879194630874,665.0 1100.3691275167785,665.0 1107.5503355704698,665.0 1114.731543624161,665.0 1121.9127516778524,665.0 1129.0939597315437,665.0 1136.275167785235,665.0 1143.4563758389263,665.0 1150.6375838926174,665.0 1157.8187919463087,665.0 1165.0,665.0" fill="none" stroke="#0ea5e9" stroke-width="3" stroke-linejoin="round" stroke-linecap="round"/>
  <circle cx="1165.0" cy="665.0" r="5" fill="#ef4444"/>
  <text x="630.0" y="732" text-anchor="middle" font-size="14" font-family="Avenir Next, Segoe UI, sans-serif" fill="#0f172a">Generation</text>
  <g transform="translate(28 380.0) rotate(-90)">
    <text text-anchor="middle" font-size="14" font-family="Avenir Next, Segoe UI, sans-serif" fill="#0f172a">Mean Best-So-Far Fitness</text>
  </g>
</svg>
