<?xml version="1.0" encoding="UTF-8"?>
<svg xmlns="http://www.w3.org/2000/svg" width="1200" height="760" viewBox="0 0 1200 760">
  <defs>
    <linearGradient id="bg" x1="0" y1="0" x2="1" y2="1">
      <stop offset="0%" stop-color="#f6fbff"/>
      <stop offset="100%" stop-color="#e9f5ea"/>
    </linearGradient>
  </defs>
  <rect x="0" y="0" width="1200" height="760" fill="url(#bg)"/>
  <text x="95" y="52" font-size="31" font-family="Avenir Next, Segoe UI, sans-serif" fill="#0f172a">Convergence Curve</text>
  <text x="95" y="77" font-size="15" font-family="Avenir Next, Segoe UI, sans-serif" fill="#334155">Final mean best-so-far: 0.97012195 at generation 149</text>
  <line x1="95.0" y1="95" x2="95.0" y2="665" stroke="#94a3b8" stroke-opacity="0.27" stroke-width="1"/>
  <text x="95.0" y="689" text-anchor="middle" font-size="12" font-family="Avenir Next, Segoe UI, sans-serif" fill="#334155">0</text>
  <line x1="310.43624161073825" y1="95" x2="310.43624161073825" y2="665" stroke="#94a3b8" stroke-opacity="0.27" stroke-width="1"/>
  <text x="310.43624161073825" y="689" text-anchor="middle" font-size="12" font-family="Avenir Next, Segoe UI, sans-serif" fill="#334155">30</text>
  <line x1="525.8724832214765" y1="95" x2="525.8724832214765" y2="665" stroke="#94a3b8" stroke-opacity="0.27" stroke-width="1"/>
  <text x="525.8724832214765" y="689" text-anchor="middle" font-size="12" font-family="Avenir Next, Segoe UI, sans-serif" fill="#334155">60</text>
  <line x1="734.1275167785235" y1="95" x2="734.1275167785235" y2="665" stroke="#94a3b8" stroke-opacity="0.27" stroke-width="1"/>
  <text x="734.1275167785235" y="689" text-anchor="middle" font-size="12" font-family="Avenir Next, Segoe UI, sans-serif" fill="#334155">89</text>
  <line x1="949.5637583892617" y1="95" x2="949.5637583892617" y2="665" stroke="#94a3b8" stroke-opacity="0.27" stroke-width="1"/>
  <text x="949.5637583892617" y="689" text-anchor="middle" font-size="12" font-family="Avenir Next, Segoe UI, sans-serif" fill="#334155">119</text>
  <line x1="1165.0" y1="95" x2="1165.0" y2="665" stroke="#94a3b8" stroke-opacity="0.27" stroke-width="1"/>
  <text x="1165.0" y="689" text-anchor="middle" font-size="12" font-family="Avenir Next, Segoe UI, sans-serif" fill="#334155">149</text>
  <line x1="95" y1="665.0" x2="1165" y2="665.0" stroke="#94a3b8" stroke-opacity="0.27" stroke-width="1"/>
  <text x="85" y="669.000" text-anchor="end" font-size="12" font-family="Avenir Next, Segoe UI, sans-serif" fill="#334155">0.969908</text>
  <line x1="95" y1="551.0000000001102" x2="1165" y2="551.0000000001102" stroke="#94a3b8" stroke-opacity="0.27" stroke-width="1"/>
  <text x="85" y="555.000" text-anchor="end" font-size="12" font-family="Avenir Next, Segoe UI, sans-serif" fill="#334155">0.969954</text>
  <line x1="95" y1="436.9999999999449" x2="1165" y2="436.9999999999449" stroke="#94a3b8" stroke-opacity="0.27" stroke-width="1"/>
  <text x="85" y="441.000" text-anchor="end" font-size="12" font-family="Avenir Next, Segoe UI, sans-serif" fill="#334155">0.970000</text>
  <line x1="95" y1="323.0000000000551" x2="1165" y2="323.0000000000551" stroke="#94a3b8" stroke-opacity="0.27" stroke-width="1"/>
  <text x="85" y="327.000" text-anchor="end" font-size="12" font-family="Avenir Next, Segoe UI, sans-serif" fill="#334155">0.970046</text>
  <line x1="95" y1="208.99999999988987" x2="1165" y2="208.99999999988987" stroke="#94a3b8" stroke-opacity="0.27" stroke-width="1"/>
  <text x="85" y="213.000" text-anchor="end" font-size="12" font-family="Avenir Next, Segoe UI, sans-serif" fill="#334155">0.970092</text>
  <line x1="95" y1="95.0" x2="1165" y2="95.0" stroke="#94a3b8" stroke-opacity="0.27" stroke-width="1"/>
  <text x="85" y="99.000" text-anchor="end" font-size="12" font-family="Avenir Next, Segoe UI, sans-serif" fill="#334155">0.970138</text>
  <line x1="95" y1="665" x2="1165" y2="665" stroke="#0f172a" stroke-width="1.8"/>
  <line x1="95" y1="95" x2="95" y2="665" stroke="#0f172a" stroke-width="1.8"/>
  <polyline points="95.0,625.6896551724043 102.18120805369128,474.48457698286484 109.36241610738256,474.48457698286484 116.54362416107382,474.48457698286484 123.7248322147651,474.48457698286484 130.90604026845637,474.48457698286484 138.08724832214764,474.48457698286484 145.26845637583892,474.48457698286484 152.4496644295302,474.48457698286484 159.63087248322148,361.0931662645335 166.81208053691273,361.0931662645335 173.99328859060404,361.0931662645335 181.1744966442953,361.0931662645335 188.3557046979866,361.0931662645335 195.53691275167785,361.0931662645335 202.71812080536913,361.0931662645335 209.8993288590604,361.0931662645335 217.08053691275168,361.0931662645335 224.26174496644296,361.0931662645335 231.44295302013424,361.0931662645335 238.6241610738255,361.0931662645335 245.80536912751677,247.701755545927 252.98657718120808,247.701755545927 260.1677852348993,247.701755545927 267.3489932885906,247.701755545927 274.5302013422819,247.701755545927 281.7114093959732,247.701755545927 288.8926174496644,247.701755545927 296.0738255033557,247.701755545927 303.255033557047,247.701755545927 310.43624161073825,247.701755545927 317.6174496644295,247.701755545927 324.7986577181208,247.701755545927 331.9798657718121,247.701755545927 339.16107382550337,247.701755545927 346.3422818791946,247.701755545927 353.5234899328859,247.701755545927 360.7046979865772,247.701755545927 367.8859060402685,247.701755545927 375.06711409395973,247.701755545927 382.248322147651,247.701755545927 389.4295302013423,247.701755545927 396.61073825503354,247.701755545927 403.79194630872485,247.701755545927 410.97315436241615,247.701755545927 418.1543624161074,247.701755545927 425.33557046979865,247.701755545927 432.5167785234899,247.701755545927 439.6979865771812,247.701755545927 446.8791946308725,247.701755545927 454.06040268456377,134.3103448275957 461.241610738255,134.3103448275957 468.4228187919463,134.3103448275957 475.6040268456376,134.3103448275957 482.7852348993288,134.3103448275957 489.96644295302013,134.3103448275957 497.14765100671144,134.3103448275957 504.3288590604027,134.3103448275957 511.51006711409394,134.3103448275957 518.6912751677852,134.3103448275957 525.8724832214765,134.3103448275957 533.0536912751678,134.3103448275957 540.234899328859,134.3103448275957 547.4161073825503,134.3103448275957 554.5973154362416,134.3103448275957 561.7785234899329,134.3103448275957 568.9597315436242,134.3103448275957 576.1409395973155,134.3103448275957 583.3221476510067,134.3103448275957 590.5033557046979,134.3103448275957 597.6845637583892,134.3103448275957 604.8657718120805,134.3103448275957 612.0469798657718,134.3103448275957 619.2281879194632,134.3103448275957 626.4093959731543,134.3103448275957 633.5906040268457,134.3103448275957 640.771812080537,134.3103448275957 647.9530201342283,134.3103448275957 655.1342281879195,134.3103448275957 662.3154362416108,134.3103448275957 669.496644295302,134.3103448275957 676.6778523489933,134.3103448275957 683.8590604026846,134.3103448275957 691.0402684563758,134.3103448275957 698.2214765100671,134.3103448275957 705.4026845637584,134.3103448275957 712.5838926174497,134.3103448275957 719.765100671141,134.3103448275957 726.9463087248323,134.3103448275957 734.1275167785235,134.3103448275957 741.3087248322148,134.3103448275957 748.489932885906,134.3103448275957 755.6711409395973,134.3103448275957 762.8523489932886,134.3103448275957 770.0335570469798,134.3103448275957 777.2147651006711,134.3103448275957 784.3959731543624,134.3103448275957 791.5771812080536,134.3103448275957 798.758389261745,134.3103448275957 805.9395973154362,134.3103448275957 813.1208053691275,134.3103448275957 820.3020134228188,134.3103448275957 827.48322147651,134.3103448275957 834.6644295302013,134.3103448275957 841.8456375838927,134.3103448275957 849.0268456375838,134.3103448275957 856.2080536912752,134.3103448275957 863.3892617449663,134.3103448275957 870.5704697986577,134.3103448275957 877.7516778523491,134.3103448275957 884.9328859060403,134.3103448275957 892.1140939597316,134.3103448275957 899.2953020134229,134.3103448275957 906.4765100671141,134.3103448275957 913.6577181208054,134.3103448275957 920.8389261744967,134.3103448275957 928.0201342281879,134.3103448275957 935.2013422818792,134.3103448275957 942.3825503355704,134.3103448275957 949.5637583892617,134.3103448275957 956.744966442953,134.3103448275957 963.9261744966443,134.3103448275957 971.1073825503356,134.3103448275957 978.2885906040269,134.3103448275957 985.4697986577181,134.3103448275957 992.6510067114094,134.3103448275957 999.8322147651006,134.3103448275957 1007.0134228187919,134.3103448275957 1014.1946308724832,134.3103448275957 1021.3758389261744,134.3103448275957 1028.5570469798658,134.3103448275957 1035.738255033557,134.3103448275957 1042.9194630872485,134.3103448275957 1050.1006711409395,134.3103448275957 1057.281879194631,134.3103448275957 1064.4630872483222,134.3103448275957 1071.6442953020135,134.3103448275957 1078.8255033557048,134.3103448275957 1086.0067114093958,134.3103448275957 1093.1879194630874,134.3103448275957 1100.3691275167785,134.3103448275957 1107.5503355704698,134.3103448275957 1114.731543624161,134.3103448275957 1121.9127516778524,134.3103448275957 1129.0939597315437,134.3103448275957 1136.275167785235,134.3103448275957 1143.4563758389263,134.3103448275957 1150.6375838926174,134.3103448275957 1157.8187919463087,134.3103448275957 1165.0,134.3103448275957" fill="none" stroke="#0ea5e9" stroke-width="3" stroke-linejoin="round" stroke-linecap="round"/>
  <circle cx="1165.0" cy="134.3103448275957" r="5" fill="#ef4444"/>
  <text x="630.0" y="732" text-anchor="middle" font-size="14" font-family="Avenir Next, Segoe UI, sans-serif" fill="#0f172a">Generation</text>
  <g transform="translate(28 380.0) rotate(-90)">
    <text text-anchor="middle" font-size="14" font-family="Avenir Next, Segoe UI, sans-serif" fill="#0f172a">Mean Best-So-Far Fitness</text>
  </g>
</svg>
