<?xml version="1.0" encoding="UTF-8"?>
<svg xmlns="http://www.w3.org/2000/svg" width="1200" height="760" viewBox="0 0 1200 760">
  <defs>
    <linearGradient id="bg" x1="0" y1="0" x2="1" y2="1">
      <stop offset="0%" stop-color="#f6fbff"/>
      <stop offset="100%" stop-color="#e9f5ea"/>
    </linearGradient>
  </defs>
  <rect x="0" y="0" width="1200" height="760" fill="url(#bg)"/>
  <text x="95" y="52" font-size="31" font-family="Avenir Next, Segoe UI, sans-serif" fill="#0f172a">Convergence Curve</text>
  <text x="95" y="77" font-size="15" font-family="Avenir Next, Segoe UI, sans-serif" fill="#334155">Final mean best-so-far: 0.88826530 at generation 149</text>
  <line x1="95.0" y1="95" x2="95.0" y2="665" stroke="#94a3b8" stroke-opacity="0.27" stroke-width="1"/>
  <text x="95.0" y="689" text-anchor="middle" font-size="12" font-family="Avenir Next, Segoe UI, sans-serif" fill="#334155">0</text>
  <line x1="310.43624161073825" y1="95" x2="310.43624161073825" y2="665" stroke="#94a3b8" stroke-opacity="0.27" stroke-width="1"/>
  <text x="310.43624161073825" y="689" text-anchor="middle" font-size="12" font-family="Avenir Next, Segoe UI, sans-serif" fill="#334155">30</text>
  <line x1="525.8724832214765" y1="95" x2="525.8724832214765" y2="665" stroke="#94a3b8" stroke-opacity="0.27" stroke-width="1"/>
  <text x="525.8724832214765" y="689" text-anchor="middle" font-size="12" font-family="Avenir Next, Segoe UI, sans-serif" fill="#334155">60</text>
  <line x1="734.1275167785235" y1="95" x2="734.1275167785235" y2="665" stroke="#94a3b8" stroke-opacity="0.27" stroke-width="1"/>
  <text x="734.1275167785235" y="689" text-anchor="middle" font-size="12" font-family="Avenir Next, Segoe UI, sans-serif" fill="#334155">89</text>
  <line x1="949.5637583892617" y1="95" x2="949.5637583892617" y2="665" stroke="#94a3b8" stroke-opacity="0.27" stroke-width="1"/>
  <text x="949.5637583892617" y="689" text-anchor="middle" font-size="12" font-family="Avenir Next, Segoe UI, sans-serif" fill="#334155">119</text>
  <line x1="1165.0" y1="95" x2="1165.0" y2="665" stroke="#94a3b8" stroke-opacity="0.27" stroke-width="1"/>
  <text x="1165.0" y="689" text-anchor="middle" font-size="12" font-family="Avenir Next, Segoe UI, sans-serif" fill="#334155">149</text>
  <line x1="95" y1="665.0" x2="1165" y2="665.0" stroke="#94a3b8" stroke-opacity="0.27" stroke-width="1"/>
  <text x="85" y="669.000" text-anchor="end" font-size="12" font-family="Avenir Next, Segoe UI, sans-serif" fill="#334155">0.880792</text>
  <line x1="95" y1="550.9999999999968" x2="1165" y2="550.9999999999968" stroke="#94a3b8" stroke-opacity="0.27" stroke-width="1"/>
  <text x="85" y="555.000" text-anchor="end" font-size="12" font-family="Avenir Next, Segoe UI, sans-serif" fill="#334155">0.882397</text>
  <line x1="95" y1="437.0000000000016" x2="1165" y2="437.0000000000016" stroke="#94a3b8" stroke-opacity="0.27" stroke-width="1"/>
  <text x="85" y="441.000" text-anchor="end" font-size="12" font-family="Avenir Next, Segoe UI, sans-serif" fill="#334155">0.884003</text>
  <line x1="95" y1="322.9999999999984" x2="1165" y2="322.9999999999984" stroke="#94a3b8" stroke-opacity="0.27" stroke-width="1"/>
  <text x="85" y="327.000" text-anchor="end" font-size="12" font-family="Avenir Next, Segoe UI, sans-serif" fill="#334155">0.885608</text>
  <line x1="95" y1="209.00000000000313" x2="1165" y2="209.00000000000313" stroke="#94a3b8" stroke-opacity="0.27" stroke-width="1"/>
  <text x="85" y="213.000" text-anchor="end" font-size="12" font-family="Avenir Next, Segoe UI, sans-serif" fill="#334155">0.887214</text>
  <line x1="95" y1="95.0" x2="1165" y2="95.0" stroke="#94a3b8" stroke-opacity="0.27" stroke-width="1"/>
  <text x="85" y="99.000" text-anchor="end" font-size="12" font-family="Avenir Next, Segoe UI, sans-serif" fill="#334155">0.888819</text>
  <line x1="95" y1="665" x2="1165" y2="665" stroke="#0f172a" stroke-width="1.8"/>
  <line x1="95" y1="95" x2="95" y2="665" stroke="#0f172a" stroke-width="1.8"/>
  <polyline points="95.0,625.6896551724143 102.18120805369128,455.8581421118419 109.36241610738256,443.4040110518005 116.54362416107382,407.17284325535263 123.7248322147651,402.64439110745207 130.90604026845637,385.661097776863 138.08724832214764,352.82715674465527 145.26845637583892,344.9014778325145 152.4496644295302,342.63689669723675 159.63087248322148,342.63689669723675 166.81208053691273,342.63689669723675 173.99328859060404,327.91818450192545 181.1744966442953,327.91818450192545 188.3557046979866,310.93489117133646 195.53691275167785,292.81966233443995 202.71812080536913,292.81966233443995 209.8993288590604,279.2328856454361 217.08053691275168,278.1009501391287 224.26174496644296,271.30791685595034 231.44295302013424,250.9281068837761 238.6241610738255,215.82958471629058 245.80536912751677,167.1442858598013 252.98657718120808,167.1442858598013 260.1677852348993,167.1442858598013 267.3489932885906,167.1442858598013 274.5302013422819,167.1442858598013 281.7114093959732,161.48318808293828 288.8926174496644,159.21860694766048 296.0738255033557,159.21860694766048 303.255033557047,159.21860694766048 310.43624161073825,159.21860694766048 317.6174496644295,159.21860694766048 324.7986577181208,159.21860694766048 331.9798657718121,159.21860694766048 339.16107382550337,159.21860694766048 346.3422818791946,159.21860694766048 353.5234899328859,159.21860694766048 360.7046979865772,159.21860694766048 367.8859060402685,159.21860694766048 375.06711409395973,159.21860694766048 382.248322147651,145.63254038131168 389.4295302013423,145.63254038131168 396.61073825503354,145.63254038131168 403.79194630872485,145.63254038131168 410.97315436241615,145.63254038131168 418.1543624161074,145.63254038131168 425.33557046979865,145.63254038131168 432.5167785234899,145.63254038131168 439.6979865771812,145.63254038131168 446.8791946308725,145.63254038131168 454.06040268456377,145.63254038131168 461.241610738255,145.63254038131168 468.4228187919463,145.63254038131168 475.6040268456376,145.63254038131168 482.7852348993288,145.63254038131168 489.96644295302013,145.63254038131168 497.14765100671144,145.63254038131168 504.3288590604027,145.63254038131168 511.51006711409394,145.63254038131168 518.6912751677852,145.63254038131168 525.8724832214765,145.63254038131168 533.0536912751678,145.63254038131168 540.234899328859,145.63254038131168 547.4161073825503,145.63254038131168 554.5973154362416,145.63254038131168 561.7785234899329,145.63254038131168 568.9597315436242,145.63254038131168 576.1409395973155,145.63254038131168 583.3221476510067,145.63254038131168 590.5033557046979,145.63254038131168 597.6845637583892,145.63254038131168 604.8657718120805,145.63254038131168 612.0469798657718,145.63254038131168 619.2281879194632,145.63254038131168 626.4093959731543,145.63254038131168 633.5906040268457,145.63254038131168 640.771812080537,145.63254038131168 647.9530201342283,145.63254038131168 655.1342281879195,145.63254038131168 662.3154362416108,145.63254038131168 669.496644295302,145.63254038131168 676.6778523489933,145.63254038131168 683.8590604026846,145.63254038131168 691.0402684563758,145.63254038131168 698.2214765100671,145.63254038131168 705.4026845637584,145.63254038131168 712.5838926174497,145.63254038131168 719.765100671141,145.63254038131168 726.9463087248323,145.63254038131168 734.1275167785235,145.63254038131168 741.3087248322148,145.63254038131168 748.489932885906,145.63254038131168 755.6711409395973,145.63254038131168 762.8523489932886,145.63254038131168 770.0335570469798,145.63254038131168 777.2147651006711,145.63254038131168 784.3959731543624,145.63254038131168 791.5771812080536,145.63254038131168 798.758389261745,145.63254038131168 805.9395973154362,145.63254038131168 813.1208053691275,145.63254038131168 820.3020134228188,145.63254038131168 827.48322147651,145.63254038131168 834.6644295302013,145.63254038131168 841.8456375838927,145.63254038131168 849.0268456375838,145.63254038131168 856.2080536912752,145.63254038131168 863.3892617449663,145.63254038131168 870.5704697986577,145.63254038131168 877.7516778523491,145.63254038131168 884.9328859060403,145.63254038131168 892.1140939597316,145.63254038131168 899.2953020134229,145.63254038131168 906.4765100671141,145.63254038131168 913.6577181208054,145.63254038131168 920.8389261744967,145.63254038131168 928.0201342281879,145.63254038131168 935.2013422818792,145.63254038131168 942.3825503355704,145.63254038131168 949.5637583892617,145.63254038131168 956.744966442953,145.63254038131168 963.9261744966443,145.63254038131168 971.1073825503356,145.63254038131168 978.2885906040269,145.63254038131168 985.4697986577181,145.63254038131168 992.6510067114094,145.63254038131168 999.8322147651006,145.63254038131168 1007.0134228187919,145.63254038131168 1014.1946308724832,145.63254038131168 1021.3758389261744,145.63254038131168 1028.5570469798658,145.63254038131168 1035.738255033557,145.63254038131168 1042.9194630872485,145.63254038131168 1050.1006711409395,145.63254038131168 1057.281879194631,139.97144260444867 1064.4630872483222,139.97144260444867 1071.6442953020135,139.97144260444867 1078.8255033557048,139.97144260444867 1086.0067114093958,139.97144260444867 1093.1879194630874,134.31034482758565 1100.3691275167785,134.31034482758565 1107.5503355704698,134.31034482758565 1114.731543624161,134.31034482758565 1121.9127516778524,134.31034482758565 1129.0939597315437,134.31034482758565 1136.275167785235,134.31034482758565 1143.4563758389263,134.31034482758565 1150.6375838926174,134.31034482758565 1157.8187919463087,134.31034482758565 1165.0,134.31034482758565" fill="none" stroke="#0ea5e9" stroke-width="3" stroke-linejoin="round" stroke-linecap="round"/>
  <circle cx="1165.0" cy="134.31034482758565" r="5" fill="#ef4444"/>
  <text x="630.0" y="732" text-anchor="middle" font-size="14" font-family="Avenir Next, Segoe UI, sans-serif" fill="#0f172a">Generation</text>
  <g transform="translate(28 380.0) rotate(-90)">
    <text text-anchor="middle" font-size="14" font-family="Avenir Next, Segoe UI, sans-serif" fill="#0f172a">Mean Best-So-Far Fitness</text>
  </g>
</svg>
